<?xml version="1.0" encoding="UTF-8"?>
<svg xmlns="http://www.w3.org/2000/svg" xmlns:xlink="http://www.w3.org/1999/xlink" viewBox="0 0 374.9 347">
  <defs>
    <clipPath id="clippath">
      <path d="m308.47,146h-94.09c-1.89,0-3.2,1.87-2.56,3.65l23.03,73.55c.39,1.08,1.41,1.8,2.56,1.8h91.91c3.98,0,6.75-3.95,5.4-7.69l-20.84-67.52c-.82-2.27-2.98-3.78-5.4-3.78Z" style="fill: none; stroke-width: 0px;"/>
    </clipPath>
    <clipPath id="clippath-1">
      <path d="m180.87,149.78c-.82-2.27-2.98-3.78-5.4-3.78h-69.97l11,79h52.8l23.21-33.1-11.64-42.12Z" style="fill: none; stroke-width: 0px;"/>
    </clipPath>
    <clipPath id="clippath-2">
      <path d="m180.87,149.78c-.82-2.27-2.98-3.78-5.4-3.78h-69.97l11,79h52.8l23.21-33.1-11.64-42.12Z" style="fill: none; stroke-width: 0px;"/>
    </clipPath>
    <clipPath id="clippath-5">
      <path d="m60.58,146c-8.53,0-15.65,6.52-16.38,15.02l-4.15,57.74c-.29,3.35,2.35,6.24,5.72,6.24h56.61l-11-79h-30.79Z" style="fill: none; stroke-width: 0px;"/>
    </clipPath>
    <clipPath id="clippath-6">
      <path d="m60.58,146c-8.53,0-15.65,6.52-16.38,15.02l-4.15,57.74c-.29,3.35,2.35,6.24,5.72,6.24h56.61l-11-79h-30.79Z" style="fill: none; stroke-width: 0px;"/>
    </clipPath>
  </defs>
  <g id="s_tail">
    <circle cx="20" cy="280.5" r="20" style="fill: #183b63; stroke-width: 0px;"/>
  </g>
  <g id="s_fanse1">
    <g>
      <path d="m311.5,148v-22.74c0-7.32-5.94-13.26-13.26-13.26h-98.48c-7.32,0-13.26,5.94-13.26,13.26v22.74" style="fill: none; stroke: #183b63; stroke-linecap: round; stroke-linejoin: round; stroke-width: 8px;"/>
      <g>
        <line x1="209.25" y1="112" x2="209.25" y2="136" style="fill: none; stroke: #183b63; stroke-linecap: round; stroke-linejoin: round; stroke-width: 8px;"/>
        <line x1="235.75" y1="112" x2="235.75" y2="136" style="fill: none; stroke: #183b63; stroke-linecap: round; stroke-linejoin: round; stroke-width: 8px;"/>
        <line x1="262.25" y1="112" x2="262.25" y2="136" style="fill: none; stroke: #183b63; stroke-linecap: round; stroke-linejoin: round; stroke-width: 8px;"/>
        <line x1="288.75" y1="112" x2="288.75" y2="136" style="fill: none; stroke: #183b63; stroke-linecap: round; stroke-linejoin: round; stroke-width: 8px;"/>
      </g>
    </g>
  </g>
  <g id="s_gift1_R">
    <path d="m213.32,37.57s5.06-28.54,27.81-36.18c4.53-1.52,9.49,1.74,9.47,6.16-.03,9.99-5.17,26.36-37.29,30.02Z" style="fill: #183b63; stroke-width: 0px;"/>
  </g>
  <g id="s_gift1_L">
    <path d="m224.13,40.58s-2.13-29.04-23.94-39.81c-4.34-2.14-9.6.41-10.03,4.79-.98,9.92,2.45,26.9,33.97,35.01Z" style="fill: #183b63; stroke-width: 0px;"/>
  </g>
  <g id="s_gift1_body">
    <path d="m138.44,109.91l25.16-83.43c1.35-4.48,6.07-7.28,10.93-6.46l91.21,15.24c5.59.93,9.11,6.21,7.6,11.38l-29.15,99.89" style="fill: #183b63; stroke-width: 0px;"/>
  </g>
  <g id="s_wheel2_R">
    <ellipse cx="173" cy="299" rx="32.5" ry="44" style="fill: #183b63; stroke-width: 0px;"/>
  </g>
  <g id="s_wheel1_R">
    <ellipse cx="305.5" cy="299" rx="32" ry="44" style="fill: #183b63; stroke-width: 0px;"/>
  </g>
  <g id="s_ear_R">
    <path d="m330.22,196.8s26.77-16.78,37.59,2.37c10.81,19.15-1.97,45.97-40.31,36.39" style="fill: #183b63; stroke-width: 0px;"/>
  </g>
  <g id="gift2_R">
    <path d="m246.69,64.73s11.26-20.52,30.03-21.66c3.74-.23,6.53,3.25,5.35,6.58-2.66,7.54-10.76,18.86-35.39,15.08Z" style="fill: #fffce8; stroke: #183b63; stroke-linecap: round; stroke-linejoin: round; stroke-width: 8.84px;"/>
  </g>
  <g id="gift2_L">
    <path d="m237.55,63.75s-6.11-22.38-24.14-27.47c-3.59-1.01-7.13,1.78-6.78,5.28.81,7.91,6.02,20.65,30.91,22.19Z" style="fill: #fffce8; stroke: #183b63; stroke-linecap: round; stroke-linejoin: round; stroke-width: 8.84px;"/>
  </g>
  <g id="gift2_C">
    <path d="m245.04,72.54l-5.77-.62c-3.02-.32-5.19-2.9-4.85-5.76l1.05-8.76c.34-2.86,3.07-4.91,6.09-4.58l5.77.62c3.02.32,5.19,2.9,4.85,5.76l-1.05,8.76c-.34,2.86-3.07,4.91-6.09,4.58Z" style="fill: #fffce8; stroke: #183b63; stroke-linecap: round; stroke-linejoin: round; stroke-width: 8.84px;"/>
  </g>
  <g id="gift2_body">
    <g>
      <path d="m283.47,147.77l11.26-63.58c.4-3.77-2.2-7.24-6.09-8.14l-54.47-12.66c-.79-.18-1.61-.25-2.42-.21l-29.03,1.7c-3.8.22-6.91,2.93-7.46,6.48l-9.5,60.74,34.72,17.3,63-1.64Z" style="fill: #fffce8; stroke: #183b63; stroke-linecap: round; stroke-linejoin: round; stroke-width: 8.84px;"/>
      <line x1="231" y1="79.5" x2="220.48" y2="149.41" style="fill: #fff3f3; stroke: #183b63; stroke-linecap: round; stroke-linejoin: round; stroke-width: 8.84px;"/>
    </g>
  </g>
  <g id="gift3_R">
    <path d="m131.66,51.4s5.3-25.6,28.68-33c4.65-1.47,9.73,1.31,9.7,5.26-.07,8.92-5.4,23.66-38.38,27.74Z" style="fill: #fffce8; stroke: #183b63; stroke-linecap: round; stroke-linejoin: round; stroke-width: 9.74px;"/>
  </g>
  <g id="gift3_L">
    <path d="m119.6,53.37s-17.6-21.87-42.76-21.36c-5.01.1-8.29,4.25-6.3,7.86,4.5,8.17,16.72,20.06,49.06,13.49Z" style="fill: #fffce8; stroke: #183b63; stroke-linecap: round; stroke-linejoin: round; stroke-width: 9.74px;"/>
  </g>
  <g id="gift3_C">
    <path d="m132.99,60.28l-7.6,1.24c-3.98.65-7.88-1.39-8.7-4.55l-2.51-9.69c-.82-3.16,1.75-6.25,5.73-6.9l7.6-1.24c3.98-.65,7.88,1.39,8.7,4.55l2.51,9.69c.82,3.16-1.75,6.25-5.73,6.9Z" style="fill: #fffce8; stroke: #183b63; stroke-linecap: round; stroke-linejoin: round; stroke-width: 9.74px;"/>
  </g>
  <g id="gift3_body">
    <g>
      <path d="m198.98,132.3l-3.03-72.32c-.86-4.49-4.84-7.87-9.7-8.25l-43.15-3.32c-1.32-.1-2.66.03-3.93.38l-66.97,18.56c-5.21,1.44-8.44,6.29-7.55,11.3l10.93,61.24,76.84,5.36,46.56-12.95Z" style="fill: #fffce8; stroke: #183b63; stroke-linecap: round; stroke-linejoin: round; stroke-width: 9.74px;"/>
      <line x1="152.42" y1="145.25" x2="142.5" y2="65" style="fill: #fff3f3; stroke: #183b63; stroke-linecap: round; stroke-linejoin: round; stroke-width: 9.74px;"/>
    </g>
  </g>
  <g id="fanse2">
    <g>
      <path d="m184.5,143v-22.74c0-7.32-5.94-13.26-13.26-13.26h-98.48c-7.32,0-13.26,5.94-13.26,13.26v22.74" style="fill: none; stroke: #183b63; stroke-linecap: round; stroke-linejoin: round; stroke-width: 8px;"/>
      <g>
        <line x1="82.25" y1="108" x2="82.25" y2="132" style="fill: none; stroke: #183b63; stroke-linecap: round; stroke-linejoin: round; stroke-width: 8px;"/>
        <line x1="108.75" y1="108" x2="108.75" y2="132" style="fill: none; stroke: #183b63; stroke-linecap: round; stroke-linejoin: round; stroke-width: 8px;"/>
        <line x1="135.25" y1="108" x2="135.25" y2="132" style="fill: none; stroke: #183b63; stroke-linecap: round; stroke-linejoin: round; stroke-width: 8px;"/>
        <line x1="161.75" y1="108" x2="161.75" y2="132" style="fill: none; stroke: #183b63; stroke-linecap: round; stroke-linejoin: round; stroke-width: 8px;"/>
      </g>
    </g>
  </g>
  <g id="car_body" data-name="car body">
    <path d="m312.63,131H58.98c-15.03,0-27.61,11.39-29.1,26.35l-12.85,139.26c-.82,8.24,5.66,15.4,13.94,15.4h319.06c7.11,0,13.09-5.32,13.92-12.38l6.86-58.61c.93-7.91-4.92-15-12.87-15.6l-5.44-.41-26.68-84.7c-1.99-5.58-7.27-9.3-13.19-9.3Z" style="fill: #fffce8; stroke: #183b63; stroke-linecap: round; stroke-linejoin: round; stroke-width: 8px;"/>
  </g>
  <g id="door">
    <g>
      <path d="m116.5,225l13.55,68.55h36.13c1.63-23.23,13.59-42.78,30.16-51.57v-9.88" style="fill: none; stroke: #183b63; stroke-linecap: round; stroke-linejoin: round; stroke-width: 8px;"/>
      <line x1="135.42" y1="251.74" x2="137.75" y2="262.39" style="fill: none; stroke: #183b63; stroke-linecap: round; stroke-linejoin: round; stroke-width: 8px;"/>
    </g>
  </g>
  <g id="oilhole">
    <ellipse cx="42" cy="251.38" rx="12.62" ry="6.5" transform="translate(-212.3 268.31) rotate(-84.32)" style="fill: none; stroke: #183b63; stroke-linecap: round; stroke-linejoin: round; stroke-width: 6.12px;"/>
  </g>
  <g id="window1">
    <g style="clip-path: url(#clippath);">
      <line x1="219.5" y1="167" x2="318.5" y2="167" style="fill: none; stroke: #183b63; stroke-linecap: round; stroke-linejoin: round; stroke-width: 8px;"/>
      <g id="cute1">
        <g>
          <circle cx="246.01" cy="191.07" r="34.51" style="fill: #fffce8; stroke: #183b63; stroke-linecap: round; stroke-linejoin: round; stroke-width: 8px;"/>
          <ellipse cx="247.98" cy="189.33" rx="4.93" ry="8.87" style="fill: #183b63; stroke-width: 0px;"/>
          <path d="m268.68,189.33c0,4.9-2.21,8.87-4.93,8.87s-4.93-3.97-4.93-8.87c0-4.9,2.21-8.87,4.93-8.87s4.93,3.97,4.93,8.87Z" style="fill: #183b63; stroke-width: 0px;"/>
        </g>
      </g>
      <g id="handle">
        <path d="m284,188.5c-14.36,0-26,11.64-26,26s11.64,26,26,26,26-11.64,26-26-11.64-26-26-26Zm0,36.5c-5.8,0-10.5-4.7-10.5-10.5s4.7-10.5,10.5-10.5,10.5,4.7,10.5,10.5-4.7,10.5-10.5,10.5Z" style="fill: #fffce8; stroke: #183b63; stroke-linecap: round; stroke-linejoin: round; stroke-width: 8px;"/>
        <circle cx="264.5" cy="207" r="11" style="fill: #fffce8; stroke: #183b63; stroke-linecap: round; stroke-linejoin: round; stroke-width: 8px;"/>
        <circle cx="305.5" cy="207" r="11" style="fill: #fffce8; stroke: #183b63; stroke-linecap: round; stroke-linejoin: round; stroke-width: 8px;"/>
      </g>
      <polygon points="341.5 213.78 222.5 213.78 229.24 233 341.5 233 341.5 213.78" style="fill: #fffce8; stroke: #183b63; stroke-linecap: round; stroke-linejoin: round; stroke-width: 8px;"/>
    </g>
  </g>
  <g id="window1_grass">
    <path d="m308.47,146h-94.09c-1.89,0-3.2,1.87-2.56,3.65l23.03,73.55c.39,1.08,1.41,1.8,2.56,1.8h91.91c3.98,0,6.75-3.95,5.4-7.69l-20.84-67.52c-.82-2.27-2.98-3.78-5.4-3.78Z" style="fill: #fffce8; opacity: .5; stroke-width: 0px;"/>
  </g>
  <g id="window1_frame">
    <path d="m308.47,146h-94.09c-1.89,0-3.2,1.87-2.56,3.65l23.03,73.55c.39,1.08,1.41,1.8,2.56,1.8h91.91c3.98,0,6.75-3.95,5.4-7.69l-20.84-67.52c-.82-2.27-2.98-3.78-5.4-3.78Z" style="fill: none; stroke: #183b63; stroke-linecap: round; stroke-linejoin: round; stroke-width: 8px;"/>
  </g>
  <g id="window2">
    <g style="clip-path: url(#clippath-1);">
      <line x1="108.5" y1="166.78" x2="184.5" y2="166.78" style="fill: none; stroke: #183b63; stroke-linecap: round; stroke-linejoin: round; stroke-width: 8px;"/>
      <g id="cute3">
        <g>
          <circle cx="172.01" cy="194.07" r="30.51" style="fill: #fffce8; stroke: #183b63; stroke-linecap: round; stroke-linejoin: round; stroke-width: 8px;"/>
          <ellipse cx="173.75" cy="192.53" rx="4.36" ry="7.84" style="fill: #183b63; stroke-width: 0px;"/>
          <path d="m192.05,192.53c0,4.33-1.95,7.84-4.36,7.84s-4.36-3.51-4.36-7.84c0-4.33,1.95-7.84,4.36-7.84s4.36,3.51,4.36,7.84Z" style="fill: #183b63; stroke-width: 0px;"/>
        </g>
      </g>
      <g id="cute2">
        <g>
          <circle cx="131.01" cy="194.07" r="30.51" style="fill: #fffce8; stroke: #183b63; stroke-linecap: round; stroke-linejoin: round; stroke-width: 8px;"/>
          <ellipse cx="132.75" cy="192.53" rx="4.36" ry="7.84" style="fill: #183b63; stroke-width: 0px;"/>
          <path d="m151.05,192.53c0,4.33-1.95,7.84-4.36,7.84s-4.36-3.51-4.36-7.84c0-4.33,1.95-7.84,4.36-7.84s4.36,3.51,4.36,7.84Z" style="fill: #183b63; stroke-width: 0px;"/>
        </g>
      </g>
      <polygon points="109.5 213.78 194.5 213.78 196.34 232.1 109.5 233 109.5 213.78" style="fill: #fffce8; stroke: #183b63; stroke-linecap: round; stroke-linejoin: round; stroke-width: 8px;"/>
    </g>
  </g>
  <g id="window2_grass">
    <g style="clip-path: url(#clippath-2);">
      <g style="opacity: .5;">
        <path d="m197.87,178.78c-.82-2.27-2.98-3.78-5.4-3.78h-91.97l11,79h107l-20.63-75.22Z" style="fill: #fffce8;"/>
      </g>
      <path d="m197.87,178.78c-.82-2.27-2.98-3.78-5.4-3.78h-91.97l11,79h107l-20.63-75.22Z" style="fill: none; stroke: #183b63; stroke-linecap: round; stroke-linejoin: round; stroke-width: 8px;"/>
    </g>
  </g>
  <g id="window2_frame">
    <path d="m180.87,149.78c-.82-2.27-2.98-3.78-5.4-3.78h-69.97l11,79h52.8l23.21-33.1-11.64-42.12Z" style="fill: none; stroke: #183b63; stroke-linecap: round; stroke-linejoin: round; stroke-width: 8px;"/>
  </g>
  <g id="window3">
    <g style="clip-path: url(#clippath-5);">
      <line x1="43.5" y1="166.78" x2="93.5" y2="166.78" style="fill: none; stroke: #183b63; stroke-linecap: round; stroke-linejoin: round; stroke-width: 8px;"/>
      <g id="cute4">
        <g>
          <circle cx="81.99" cy="194.07" r="30.51" style="fill: #fffce8; stroke: #183b63; stroke-linecap: round; stroke-linejoin: round; stroke-width: 8px;"/>
          <ellipse cx="80.25" cy="196.53" rx="4.36" ry="7.84" style="fill: #183b63; stroke-width: 0px;"/>
          <ellipse cx="66.3" cy="196.53" rx="4.36" ry="7.84" style="fill: #183b63; stroke-width: 0px;"/>
        </g>
      </g>
      <polygon points="108.5 213.78 33.5 213.78 31.56 240.14 112.85 240.14 108.5 213.78" style="fill: #fffce8; stroke: #183b63; stroke-linecap: round; stroke-linejoin: round; stroke-width: 8px;"/>
    </g>
  </g>
  <g id="window3_grass">
    <g style="clip-path: url(#clippath-6);">
      <path d="m60.58,146c-8.53,0-15.65,6.52-16.38,15.02l-4.15,57.74c-.29,3.35,2.35,6.24,5.72,6.24h56.61l-11-79h-30.79Z" style="fill: #fffce8; opacity: .5; stroke-width: 0px;"/>
    </g>
  </g>
  <g id="window3_frame">
    <path d="m60.58,146c-8.53,0-15.65,6.52-16.38,15.02l-4.15,57.74c-.29,3.35,2.35,6.24,5.72,6.24h56.61l-11-79h-30.79Z" style="fill: none; stroke: #183b63; stroke-linecap: round; stroke-linejoin: round; stroke-width: 8px;"/>
  </g>
  <g id="ear_L">
    <path d="m204.78,196.8s-26.77-16.78-37.59,2.37c-10.81,19.15,1.97,45.97,40.31,36.39" style="fill: #fffce8; stroke: #183b63; stroke-linecap: round; stroke-linejoin: round; stroke-width: 8px;"/>
  </g>
  <g id="wheel1_L">
    <g>
      <ellipse cx="216" cy="299" rx="35.5" ry="44" style="fill: #fffce8; stroke: #183b63; stroke-linecap: round; stroke-linejoin: round; stroke-width: 8px;"/>
      <path d="m214,265c15.19,0,27.5,15.22,27.5,34s-12.31,34-27.5,34" style="fill: none; stroke: #183b63; stroke-linecap: round; stroke-linejoin: round; stroke-width: 8px;"/>
      <ellipse cx="204" cy="299" rx="6.5" ry="13" style="fill: none; stroke: #183b63; stroke-linecap: round; stroke-linejoin: round; stroke-width: 8px;"/>
    </g>
  </g>
  <g id="wheel2_L">
    <g>
      <ellipse cx="84" cy="299" rx="35.5" ry="44" style="fill: #fffce8; stroke: #183b63; stroke-linecap: round; stroke-linejoin: round; stroke-width: 8px;"/>
      <path d="m82,265c15.19,0,27.5,15.22,27.5,34s-12.31,34-27.5,34" style="fill: none; stroke: #183b63; stroke-linecap: round; stroke-linejoin: round; stroke-width: 8px;"/>
      <ellipse cx="71" cy="299" rx="6.5" ry="13" style="fill: none; stroke: #183b63; stroke-linecap: round; stroke-linejoin: round; stroke-width: 8px;"/>
    </g>
  </g>
  <g id="eye_L">
    <path d="m290.5,276s-1.17-21,11-21c11,0,6.71,21,6.71,21" style="fill: none; stroke: #183b63; stroke-linecap: round; stroke-linejoin: round; stroke-width: 8px;"/>
  </g>
  <g id="eye_R">
    <path d="m328.5,276s-1.17-21,11-21c11,0,6.71,21,6.71,21" style="fill: none; stroke: #183b63; stroke-linecap: round; stroke-linejoin: round; stroke-width: 8px;"/>
  </g>
</svg>