<?xml version="1.0" encoding="UTF-8"?>
<svg xmlns="http://www.w3.org/2000/svg" xmlns:xlink="http://www.w3.org/1999/xlink" viewBox="0 0 374.8997627548 347">
  <defs>
    <style>
      .cls-1 {
        stroke-width: 6.1176470588px;
      }

      .cls-1, .cls-2, .cls-3, .cls-4, .cls-5, .cls-6, .cls-7 {
        stroke: #183b63;
        stroke-linecap: round;
        stroke-linejoin: round;
      }

      .cls-1, .cls-2, .cls-8 {
        fill: none;
      }

      .cls-9, .cls-10 {
        opacity: .5;
      }

      .cls-10, .cls-3, .cls-5, .cls-7, .cls-11 {
        fill: #fffce8;
      }

      .cls-10, .cls-8, .cls-12 {
        stroke-width: 0px;
      }

      .cls-2, .cls-3 {
        stroke-width: 8px;
      }

      .cls-13 {
        clip-path: url(#clippath-2);
      }

      .cls-4, .cls-5 {
        stroke-width: 8.8414735794px;
      }

      .cls-4, .cls-6 {
        fill: #fff3f3;
      }

      .cls-14 {
        clip-path: url(#clippath-6);
      }

      .cls-6, .cls-7 {
        stroke-width: 9.7387369472px;
      }

      .cls-15 {
        clip-path: url(#clippath-1);
      }

      .cls-16 {
        clip-path: url(#clippath);
      }

      .cls-17 {
        clip-path: url(#clippath-5);
      }

      .cls-12 {
        fill: #183b63;
      }
    </style>
    <clipPath id="clippath">
      <path class="cls-8" d="m308.4749575101,146h-94.0925885352c-1.8881055139,0-3.2030255658,1.8749878091-2.5598447315,3.6501669117l23.0270384518,73.5546261271c.390407044,1.0775234414,1.413775612,1.7952069613,2.5598447315,1.7952069613h91.9065351182c3.980137928,0,6.7519974094-3.9524857262,5.3961682917-7.6945740909l-20.8409850348-67.5211186962c-.8229804275-2.27142598-2.9802476046-3.7843072129-5.3961682917-3.7843072129Z"/>
    </clipPath>
    <clipPath id="clippath-1">
      <path class="cls-8" d="m180.8711547852,149.7843017578c-.8229980469-2.2714233398-2.9802856445-3.7843017578-5.3961791992-3.7843017578h-69.9749755859l11,79h52.7963867188l23.2115478516-33.0981445312-11.6367797852-42.1175537109Z"/>
    </clipPath>
    <clipPath id="clippath-2">
      <path class="cls-8" d="m180.8711547852,149.7843017578c-.8229980469-2.2714233398-2.9802856445-3.7843017578-5.3961791992-3.7843017578h-69.9749755859l11,79h52.7963867188l23.2115478516-33.0981445312-11.6367797852-42.1175537109Z"/>
    </clipPath>
    <clipPath id="clippath-5">
      <path class="cls-8" d="m60.5784912109,146c-8.5309448242,0-15.645690918,6.5228881836-16.3847045898,15.0217895508l-4.1514892578,57.7415771484c-.2915649414,3.3533325195,2.3518676758,6.2366333008,5.7178955078,6.2366333008h56.6107788086l-11-79h-30.7924804688Z"/>
    </clipPath>
    <clipPath id="clippath-6">
      <path class="cls-8" d="m60.5784912109,146c-8.5309448242,0-15.645690918,6.5228881836-16.3847045898,15.0217895508l-4.1514892578,57.7415771484c-.2915649414,3.3533325195,2.3518676758,6.2366333008,5.7178955078,6.2366333008h56.6107788086l-11-79h-30.7924804688Z"/>
    </clipPath>
  </defs>
  <g id="s_tail">
    <circle class="cls-12" cx="20" cy="280.5" r="20"/>
  </g>
  <g id="s_fanse1">
    <g>
      <path class="cls-2" d="m311.5,148v-22.7419354839c0-7.3222268445-5.9358376716-13.2580645161-13.2580645161-13.2580645161h-98.4838709677c-7.3222268445,0-13.2580645161,5.9358376716-13.2580645161,13.2580645161v22.7419354839"/>
      <g>
        <line class="cls-2" x1="209.25" y1="112" x2="209.25" y2="136"/>
        <line class="cls-2" x1="235.75" y1="112" x2="235.75" y2="136"/>
        <line class="cls-2" x1="262.25" y1="112" x2="262.25" y2="136"/>
        <line class="cls-2" x1="288.75" y1="112" x2="288.75" y2="136"/>
      </g>
    </g>
  </g>
  <g id="s_gift1_R">
    <path class="cls-12" d="m213.3202833154,37.5702777255s5.0635396782-28.5395559248,27.8146289495-36.1802353065c4.5297017363-1.5212457851,9.4858484299,1.7427509749,9.4712397363,6.1594275741-.0330447761,9.9904956253-5.1650905302,26.3621440765-37.2858686858,30.0208077324Z"/>
  </g>
  <g id="s_gift1_L">
    <path class="cls-12" d="m224.129556747,40.5773207929s-2.1262428412-29.0431610772-23.9386052118-39.805267817c-4.3428028665-2.1427164653-9.5954669508.4062086367-10.0299477855,4.7934754765-.9827930076,9.9239709284,2.4484194667,26.8954290335,33.9685529973,35.0117923405Z"/>
  </g>
  <g id="s_gift1_body">
    <path class="cls-12" d="m138.4356623486,109.9143863545l25.1625405511-83.4299279089c1.3524332054-4.4841817383,6.0723650845-7.275744983,10.9296281485-6.4642348659l91.2055069144,15.2378388046c5.5861128258.9332801238,9.110732303,6.2084145047,7.6022186298,11.3778877759l-29.1504460582,99.8946541987"/>
  </g>
  <g id="s_wheel2_R">
    <ellipse class="cls-12" cx="173" cy="299" rx="32.5" ry="44"/>
  </g>
  <g id="s_wheel1_R">
    <ellipse class="cls-12" cx="305.5" cy="299" rx="32" ry="44"/>
  </g>
  <g id="s_ear_R">
    <path class="cls-12" d="m330.2196451575,196.8028666851s26.7726069411-16.7818048687,37.5864327091,2.370532804c10.813825768,19.1523376727-1.9661501419,45.9656104132-40.3060778676,36.3894415753"/>
  </g>
  <g id="gift2_R">
    <path class="cls-5" d="m246.6949801746,64.7319565596s11.258565618-20.5207693183,30.0334840911-21.6587613641c3.7380531452-.2265722087,6.527924587,3.2472515757,5.3520707532,6.5795313405-2.6597742257,7.5375965764-10.758983963,18.8558218453-35.3855548443,15.0792300236Z"/>
  </g>
  <g id="gift2_L">
    <path class="cls-5" d="m237.5515935018,63.7514407091s-6.1100865205-22.3833438032-24.138287136-27.4680180688c-3.5893829371-1.0123496759-7.1314867881,1.7824475769-6.7750955283,5.2790417971.8061548637,7.9092748757,6.0177087586,20.6549159578,30.9133826643,22.1889762717Z"/>
  </g>
  <g id="gift2_C">
    <path class="cls-5" d="m245.042651951,72.5433379926l-5.7660907049-.618342364c-3.0212572117-.3239927053-5.1926329523-2.9019567789-4.8499034593-5.7580439189l1.0509603169-8.7580272691c.342729493-2.85608714,3.0697795329-4.9087552493,6.0910367447-4.584762544l5.7660907049.618342364c3.0212572117.3239927053,5.1926329523,2.9019567789,4.8499034593,5.7580439189l-1.0509603169,8.7580272691c-.342729493,2.85608714-3.0697795329,4.9087552493-6.0910367447,4.584762544Z"/>
  </g>
  <g id="gift2_body">
    <g>
      <path class="cls-5" d="m283.4749647402,147.7701188985l11.255550146-63.5802891345c.396265014-3.7680608261-2.1987166935-7.2381694057-6.0885864807-8.1418902195l-54.4710505306-12.6550822538c-.7905360374-.18366267-1.6059709273-.2528938652-2.4184744955-.2053307774l-29.034255721,1.6996342018c-3.7955021435.2221846263-6.9086737823,2.9251394749-7.4649887741,6.4813411989l-9.5016353834,60.7384892112,34.7249037859,17.3014545761,62.9985374534-1.6383268028Z"/>
      <line class="cls-4" x1="231" y1="79.5" x2="220.4764272868" y2="149.4084457012"/>
    </g>
  </g>
  <g id="gift3_R">
    <path class="cls-7" d="m131.6629859601,51.4003895975s5.3041233293-25.6033254815,28.6800837167-33.0007646995c4.6541124731-1.4728170977,9.7277419944,1.314927749,9.6960458349,5.257692596-.0716965202,8.9185101219-5.4000989174,23.6623104082-38.3761295515,27.7430721035Z"/>
  </g>
  <g id="gift3_L">
    <path class="cls-7" d="m119.6048051193,53.3654107405s-17.6014319032-21.8705982219-42.7609520059-21.3586150641c-5.0092160659.1019349435-8.2861141873,4.2504956206-6.2971052087,7.8639630078,4.4991262217,8.1736412692,16.7247878434,20.0568021771,49.0580572145,13.4946520563Z"/>
  </g>
  <g id="gift3_C">
    <path class="cls-7" d="m132.9926972201,60.2792402776l-7.6042463205,1.2392005889c-3.9843951841.6493036457-7.8780086723-1.3862572032-8.6966291336-4.5465524081l-2.5102526542-9.6908638383c-.8186204614-3.160295205,1.7477470191-6.2485852637,5.7321422032-6.8978889093l7.6042463205-1.2392005889c3.9843951841-.6493036457,7.8780086723,1.3862572032,8.6966291336,4.5465524081l2.5102526542,9.6908638383c.8186204614,3.160295205-1.7477470191,6.2485852637-5.7321422032,6.8978889093Z"/>
  </g>
  <g id="gift3_body">
    <g>
      <path class="cls-7" d="m198.980910509,132.3003470359l-3.0303934596-72.3182373459c-.8617891437-4.4882356739-4.8420126295-7.8722857522-9.6980698205-8.245455074l-43.1517784876-3.3160482417c-1.3238928676-.101736076-2.6564658352.0271158813-3.930170341.3800243237l-66.9730998507,18.5564016205c-5.2053059617,1.4422469349-8.4440629549,6.2911549288-7.5492477551,11.3023631795l10.9349930657,61.23893233,76.8394645612,5.3565764584,46.5583020876-12.9545572505Z"/>
      <line class="cls-6" x1="152.4226084214" y1="145.2549042864" x2="142.5" y2="65"/>
    </g>
  </g>
  <g id="fanse2">
    <g>
      <path class="cls-2" d="m184.5,143v-22.7419354839c0-7.3222268445-5.9358376716-13.2580645161-13.2580645161-13.2580645161h-98.4838709677c-7.3222268445,0-13.2580645161,5.9358376716-13.2580645161,13.2580645161v22.7419354839"/>
      <g>
        <line class="cls-2" x1="82.25" y1="108" x2="82.25" y2="132"/>
        <line class="cls-2" x1="108.75" y1="108" x2="108.75" y2="132"/>
        <line class="cls-2" x1="135.25" y1="108" x2="135.25" y2="132"/>
        <line class="cls-2" x1="161.75" y1="108" x2="161.75" y2="132"/>
      </g>
    </g>
  </g>
  <g id="car_body" data-name="car body">
    <path class="cls-3" d="m312.6269875422,131H58.9760789833c-15.0279157594,0-27.6086175777,11.3920058608-29.0952922745,26.3462042819l-12.8502087655,139.2579822879c-.8196443223,8.2446575947,5.6558298099,15.3958134302,13.9411297846,15.3958134302h319.0615205575c7.1078304195,0,13.0893049891-5.3226594975,13.915001839-12.382367564l6.8551830844-58.6118153716c.9253715696-7.9119269197-4.9236571424-15.0023353594-12.8672056464-15.5981014972l-5.4362075625-.4077155672-26.6793465624-84.7021703748c-1.9913653577-5.5758230016-7.2729110335-9.2978296252-13.1936658953-9.2978296252Z"/>
  </g>
  <g id="door">
    <g>
      <path class="cls-2" d="m116.5,225l13.5484008789,68.5484008789h36.1326904297c1.6337890625-23.2254638672,13.5887451172-42.7814331055,30.1575927734-51.569519043v-9.8821411133"/>
      <line class="cls-2" x1="135.4196090121" y1="251.7419354839" x2="137.7543239566" y2="262.3870967742"/>
    </g>
  </g>
  <g id="oilhole">
    <ellipse class="cls-1" cx="42" cy="251.3823529412" rx="12.6176470588" ry="6.5" transform="translate(-212.3041838192 268.3077617184) rotate(-84.3225993342)"/>
  </g>
  <g id="window1">
    <g class="cls-16">
      <line class="cls-2" x1="219.5" y1="167" x2="318.5" y2="167"/>
      <g id="cute1">
        <g>
          <circle class="cls-3" cx="246.0063820365" cy="191.0719312182" r="34.5063820365"/>
          <ellipse class="cls-12" cx="247.9781752957" cy="189.331869096" rx="4.9294831481" ry="8.8730696665"/>
          <path class="cls-12" d="m268.6820045176,189.331869096c0,4.9004610607-2.207004781,8.8730696665-4.9294831481,8.8730696665s-4.9294831481-3.9726086058-4.9294831481-8.8730696665c0-4.9004610607,2.207004781-8.8730696665,4.9294831481-8.8730696665s4.9294831481,3.9726086058,4.9294831481,8.8730696665Z"/>
        </g>
      </g>
      <g id="handle">
        <path class="cls-3" d="m284,188.5c-14.359375,0-26,11.6405639648-26,26,0,14.359375,11.640625,26,26,26s26-11.640625,26-26c0-14.3594360352-11.640625-26-26-26Zm0,36.4999482571c-5.7989718855,0-10.5-4.7009856638-10.5-10.4999575493s4.7010281145-10.5,10.5-10.5,10.5,4.7010281145,10.5,10.5-4.7010281145,10.4999575493-10.5,10.4999575493Z"/>
        <circle class="cls-3" cx="264.5" cy="207" r="11"/>
        <circle class="cls-3" cx="305.5" cy="207" r="11"/>
      </g>
      <polygon class="cls-3" points="341.5 213.7837837822 222.5 213.7837837822 229.2419354839 232.9999482571 341.5 232.9999482571 341.5 213.7837837822"/>
    </g>
  </g>
  <g id="window1_grass">
    <path class="cls-10" d="m308.4749575101,146h-94.0925885352c-1.8881055139,0-3.2030255658,1.8749878091-2.5598447315,3.6501669117l23.0270384518,73.5546261271c.390407044,1.0775234414,1.413775612,1.7952069613,2.5598447315,1.7952069613h91.9065351182c3.980137928,0,6.7519974094-3.9524857262,5.3961682917-7.6945740909l-20.8409850348-67.5211186962c-.8229804275-2.27142598-2.9802476046-3.7843072129-5.3961682917-3.7843072129Z"/>
  </g>
  <g id="window1_frame">
    <path class="cls-2" d="m308.4749575101,146h-94.0925885352c-1.8881055139,0-3.2030255658,1.8749878091-2.5598447315,3.6501669117l23.0270384518,73.5546261271c.390407044,1.0775234414,1.413775612,1.7952069613,2.5598447315,1.7952069613h91.9065351182c3.980137928,0,6.7519974094-3.9524857262,5.3961682917-7.6945740909l-20.8409850348-67.5211186962c-.8229804275-2.27142598-2.9802476046-3.7843072129-5.3961682917-3.7843072129Z"/>
  </g>
  <g id="window2">
    <g class="cls-15">
      <line class="cls-2" x1="108.5" y1="166.7837837822" x2="184.5" y2="166.7837837822"/>
      <g id="cute3">
        <g>
          <circle class="cls-3" cx="172.0063766547" cy="194.0719366001" r="30.5063874184"/>
          <ellipse class="cls-12" cx="173.7495987928" cy="192.533583226" rx="4.3580553455" ry="7.8444996219"/>
          <path class="cls-12" d="m192.0534312438,192.533583226c0,4.332397511-1.9511678394,7.8444996219-4.3580553455,7.8444996219s-4.3580553455-3.5121021109-4.3580553455-7.8444996219c0-4.332397511,1.9511678394-7.8444996219,4.3580553455-7.8444996219s4.3580553455,3.5121021109,4.3580553455,7.8444996219Z"/>
        </g>
      </g>
      <g id="cute2">
        <g>
          <circle class="cls-3" cx="131.0063766547" cy="194.0719366001" r="30.5063874184"/>
          <ellipse class="cls-12" cx="132.7495987928" cy="192.533583226" rx="4.3580553455" ry="7.8444996219"/>
          <path class="cls-12" d="m151.0534312438,192.533583226c0,4.332397511-1.9511678394,7.8444996219-4.3580553455,7.8444996219s-4.3580553455-3.5121021109-4.3580553455-7.8444996219c0-4.332397511,1.9511678394-7.8444996219,4.3580553455-7.8444996219s4.3580553455,3.5121021109,4.3580553455,7.8444996219Z"/>
        </g>
      </g>
      <polygon class="cls-3" points="109.5 213.7837837822 194.5 213.7837837822 196.338684082 232.0967407227 109.5 232.9999482571 109.5 213.7837837822"/>
    </g>
  </g>
  <g id="window2_grass">
    <g class="cls-13">
      <g class="cls-9">
        <path class="cls-11" d="m197.8711547852,178.7843017578c-.8229980469-2.2714233398-2.9802856445-3.7843017578-5.3961791992-3.7843017578h-91.9749755859l11,79h107l-20.6288452148-75.2156982422Z"/>
      </g>
      <path class="cls-2" d="m197.8711547852,178.7843017578c-.8229980469-2.2714233398-2.9802856445-3.7843017578-5.3961791992-3.7843017578h-91.9749755859l11,79h107l-20.6288452148-75.2156982422Z"/>
    </g>
  </g>
  <g id="window2_frame">
    <path class="cls-2" d="m180.8711547852,149.7843017578c-.8229980469-2.2714233398-2.9802856445-3.7843017578-5.3961791992-3.7843017578h-69.9749755859l11,79h52.7963867188l23.2115478516-33.0981445312-11.6367797852-42.1175537109Z"/>
  </g>
  <g id="window3">
    <g class="cls-17">
      <line class="cls-2" x1="43.5" y1="166.7837837822" x2="93.5" y2="166.7837837822"/>
      <g id="cute4">
        <g>
          <circle class="cls-3" cx="81.9936233452" cy="194.0719365982" r="30.5063874184"/>
          <ellipse class="cls-12" cx="80.2504012072" cy="196.5335832241" rx="4.3580553455" ry="7.8444996219"/>
          <ellipse class="cls-12" cx="66.3046241016" cy="196.5335832235" rx="4.3580553455" ry="7.8444996219"/>
        </g>
      </g>
      <polygon class="cls-3" points="108.5 213.7837837822 33.5 213.7837837822 31.564516129 240.1438731965 112.8548387097 240.1438731965 108.5 213.7837837822"/>
    </g>
  </g>
  <g id="window3_grass">
    <g class="cls-14">
      <path class="cls-10" d="m60.5784912109,146c-8.5309448242,0-15.645690918,6.5228881836-16.3847045898,15.0217895508l-4.1514892578,57.7415771484c-.2915649414,3.3533325195,2.3518676758,6.2366333008,5.7178955078,6.2366333008h56.6107788086l-11-79h-30.7924804688Z"/>
    </g>
  </g>
  <g id="window3_frame">
    <path class="cls-2" d="m60.5784912109,146c-8.5309448242,0-15.645690918,6.5228881836-16.3847045898,15.0217895508l-4.1514892578,57.7415771484c-.2915649414,3.3533325195,2.3518676758,6.2366333008,5.7178955078,6.2366333008h56.6107788086l-11-79h-30.7924804688Z"/>
  </g>
  <g id="ear_L">
    <path class="cls-3" d="m204.7803548433,196.802866686s-26.7726069403-16.7818048699-37.5864327092,2.3705328023c-10.8138257689,19.1523376722,1.9661501398,45.9656104132,40.3060778659,36.3894415771"/>
  </g>
  <g id="wheel1_L">
    <g>
      <ellipse class="cls-3" cx="216" cy="299" rx="35.5" ry="44"/>
      <path class="cls-2" d="m214,265c15.1878306195,0,27.5,15.2223185068,27.5,34s-12.3121693805,34-27.5,34"/>
      <ellipse class="cls-2" cx="204" cy="299" rx="6.5" ry="13"/>
    </g>
  </g>
  <g id="wheel2_L">
    <g>
      <ellipse class="cls-3" cx="84" cy="299" rx="35.5" ry="44"/>
      <path class="cls-2" d="m82,265c15.1878306195,0,27.5,15.2223185068,27.5,34s-12.3121693805,34-27.5,34"/>
      <ellipse class="cls-2" cx="71" cy="299" rx="6.5" ry="13"/>
    </g>
  </g>
  <g id="eye_L">
    <path class="cls-2" d="m290.5,276s-1.1655250606-21,11-21c11,0,6.7096774194,21,6.7096774194,21"/>
  </g>
  <g id="eye_R">
    <path class="cls-2" d="m328.5,276s-1.1655250606-21,11-21c11,0,6.7096774194,21,6.7096774194,21"/>
  </g>
</svg>