<?xml version="1.0" encoding="UTF-8"?>
<svg xmlns="http://www.w3.org/2000/svg" xmlns:xlink="http://www.w3.org/1999/xlink" viewBox="0 0 374.9 347">
  <defs>
    <clipPath id="clippath">
      <path d="m308.475,146h-94.093c-1.888,0-3.203,1.875-2.56,3.65l23.027,73.555c.39,1.078,1.414,1.795,2.56,1.795h91.907c3.98,0,6.752-3.952,5.396-7.695l-20.841-67.521c-.823-2.271-2.98-3.784-5.396-3.784Z" style="fill: none; stroke-width: 0px;"/>
    </clipPath>
    <clipPath id="clippath-1">
      <path d="m180.871,149.784c-.823-2.271-2.98-3.784-5.396-3.784h-69.975l11,79h52.796l23.212-33.098-11.637-42.118Z" style="fill: none; stroke-width: 0px;"/>
    </clipPath>
    <clipPath id="clippath-2">
      <path d="m180.871,149.784c-.823-2.271-2.98-3.784-5.396-3.784h-69.975l11,79h52.796l23.212-33.098-11.637-42.118Z" style="fill: none; stroke-width: 0px;"/>
    </clipPath>
    <clipPath id="clippath-5">
      <path d="m60.578,146c-8.531,0-15.646,6.523-16.385,15.022l-4.151,57.742c-.292,3.353,2.352,6.237,5.718,6.237h56.611l-11-79h-30.792Z" style="fill: none; stroke-width: 0px;"/>
    </clipPath>
    <clipPath id="clippath-6">
      <path d="m60.578,146c-8.531,0-15.646,6.523-16.385,15.022l-4.151,57.742c-.292,3.353,2.352,6.237,5.718,6.237h56.611l-11-79h-30.792Z" style="fill: none; stroke-width: 0px;"/>
    </clipPath>
  </defs>
  <g id="s_tail">
    <circle cx="20" cy="280.5" r="20" style="fill: #183b63; stroke-width: 0px;"/>
  </g>
  <g id="s_fanse1">
    <g>
      <path d="m311.5,148v-22.742c0-7.322-5.936-13.258-13.258-13.258h-98.484c-7.322,0-13.258,5.936-13.258,13.258v22.742" style="fill: none; stroke: #183b63; stroke-linecap: round; stroke-linejoin: round; stroke-width: 8px;"/>
      <g>
        <line x1="209.25" y1="112" x2="209.25" y2="136" style="fill: none; stroke: #183b63; stroke-linecap: round; stroke-linejoin: round; stroke-width: 8px;"/>
        <line x1="235.75" y1="112" x2="235.75" y2="136" style="fill: none; stroke: #183b63; stroke-linecap: round; stroke-linejoin: round; stroke-width: 8px;"/>
        <line x1="262.25" y1="112" x2="262.25" y2="136" style="fill: none; stroke: #183b63; stroke-linecap: round; stroke-linejoin: round; stroke-width: 8px;"/>
        <line x1="288.75" y1="112" x2="288.75" y2="136" style="fill: none; stroke: #183b63; stroke-linecap: round; stroke-linejoin: round; stroke-width: 8px;"/>
      </g>
    </g>
  </g>
  <g id="s_gift1_R">
    <path d="m213.32,37.57s5.064-28.54,27.815-36.18c4.53-1.521,9.486,1.743,9.471,6.159-.033,9.99-5.165,26.362-37.286,30.021Z" style="fill: #183b63; stroke-width: 0px;"/>
  </g>
  <g id="s_gift1_L">
    <path d="m224.13,40.577s-2.126-29.043-23.939-39.805c-4.343-2.143-9.595.406-10.03,4.793-.983,9.924,2.448,26.895,33.969,35.012Z" style="fill: #183b63; stroke-width: 0px;"/>
  </g>
  <g id="s_gift1_body">
    <path d="m138.436,109.914l25.163-83.43c1.352-4.484,6.072-7.276,10.93-6.464l91.206,15.238c5.586.933,9.111,6.208,7.602,11.378l-29.15,99.895" style="fill: #183b63; stroke-width: 0px;"/>
  </g>
  <g id="s_wheel2_R">
    <ellipse cx="173" cy="299" rx="32.5" ry="44" style="fill: #183b63; stroke-width: 0px;"/>
  </g>
  <g id="s_wheel1_R">
    <ellipse cx="305.5" cy="299" rx="32" ry="44" style="fill: #183b63; stroke-width: 0px;"/>
  </g>
  <g id="s_ear_R">
    <path d="m330.22,196.803s26.773-16.782,37.586,2.371c10.814,19.152-1.966,45.966-40.306,36.389" style="fill: #183b63; stroke-width: 0px;"/>
  </g>
  <g id="gift2_R">
    <path d="m246.695,64.732s11.259-20.521,30.033-21.659c3.738-.227,6.528,3.247,5.352,6.58-2.66,7.538-10.759,18.856-35.386,15.079Z" style="fill: #fffce8; stroke: #183b63; stroke-linecap: round; stroke-linejoin: round; stroke-width: 8.841px;"/>
  </g>
  <g id="gift2_L">
    <path d="m237.552,63.751s-6.11-22.383-24.138-27.468c-3.589-1.012-7.131,1.782-6.775,5.279.806,7.909,6.018,20.655,30.913,22.189Z" style="fill: #fffce8; stroke: #183b63; stroke-linecap: round; stroke-linejoin: round; stroke-width: 8.841px;"/>
  </g>
  <g id="gift2_C">
    <path d="m245.043,72.543l-5.766-.618c-3.021-.324-5.193-2.902-4.85-5.758l1.051-8.758c.343-2.856,3.07-4.909,6.091-4.585l5.766.618c3.021.324,5.193,2.902,4.85,5.758l-1.051,8.758c-.343,2.856-3.07,4.909-6.091,4.585Z" style="fill: #fffce8; stroke: #183b63; stroke-linecap: round; stroke-linejoin: round; stroke-width: 8.841px;"/>
  </g>
  <g id="gift2_body">
    <g>
      <path d="m283.475,147.77l11.256-63.58c.396-3.768-2.199-7.238-6.089-8.142l-54.471-12.655c-.791-.184-1.606-.253-2.418-.205l-29.034,1.7c-3.796.222-6.909,2.925-7.465,6.481l-9.502,60.738,34.725,17.301,62.999-1.638Z" style="fill: #fffce8; stroke: #183b63; stroke-linecap: round; stroke-linejoin: round; stroke-width: 8.841px;"/>
      <line x1="231" y1="79.5" x2="220.476" y2="149.408" style="fill: #fff3f3; stroke: #183b63; stroke-linecap: round; stroke-linejoin: round; stroke-width: 8.841px;"/>
    </g>
  </g>
  <g id="gift3_R">
    <path d="m131.663,51.4s5.304-25.603,28.68-33.001c4.654-1.473,9.728,1.315,9.696,5.258-.072,8.919-5.4,23.662-38.376,27.743Z" style="fill: #fffce8; stroke: #183b63; stroke-linecap: round; stroke-linejoin: round; stroke-width: 9.739px;"/>
  </g>
  <g id="gift3_L">
    <path d="m119.605,53.365s-17.601-21.871-42.761-21.359c-5.009.102-8.286,4.25-6.297,7.864,4.499,8.174,16.725,20.057,49.058,13.495Z" style="fill: #fffce8; stroke: #183b63; stroke-linecap: round; stroke-linejoin: round; stroke-width: 9.739px;"/>
  </g>
  <g id="gift3_C">
    <path d="m132.993,60.279l-7.604,1.239c-3.984.649-7.878-1.386-8.697-4.547l-2.51-9.691c-.819-3.16,1.748-6.249,5.732-6.898l7.604-1.239c3.984-.649,7.878,1.386,8.697,4.547l2.51,9.691c.819,3.16-1.748,6.249-5.732,6.898Z" style="fill: #fffce8; stroke: #183b63; stroke-linecap: round; stroke-linejoin: round; stroke-width: 9.739px;"/>
  </g>
  <g id="gift3_body">
    <g>
      <path d="m198.981,132.3l-3.03-72.318c-.862-4.488-4.842-7.872-9.698-8.245l-43.152-3.316c-1.324-.102-2.656.027-3.93.38l-66.973,18.556c-5.205,1.442-8.444,6.291-7.549,11.302l10.935,61.239,76.839,5.357,46.558-12.955Z" style="fill: #fffce8; stroke: #183b63; stroke-linecap: round; stroke-linejoin: round; stroke-width: 9.739px;"/>
      <line x1="152.423" y1="145.255" x2="142.5" y2="65" style="fill: #fff3f3; stroke: #183b63; stroke-linecap: round; stroke-linejoin: round; stroke-width: 9.739px;"/>
    </g>
  </g>
  <g id="fanse2">
    <g>
      <path d="m184.5,143v-22.742c0-7.322-5.936-13.258-13.258-13.258h-98.484c-7.322,0-13.258,5.936-13.258,13.258v22.742" style="fill: none; stroke: #183b63; stroke-linecap: round; stroke-linejoin: round; stroke-width: 8px;"/>
      <g>
        <line x1="82.25" y1="108" x2="82.25" y2="132" style="fill: none; stroke: #183b63; stroke-linecap: round; stroke-linejoin: round; stroke-width: 8px;"/>
        <line x1="108.75" y1="108" x2="108.75" y2="132" style="fill: none; stroke: #183b63; stroke-linecap: round; stroke-linejoin: round; stroke-width: 8px;"/>
        <line x1="135.25" y1="108" x2="135.25" y2="132" style="fill: none; stroke: #183b63; stroke-linecap: round; stroke-linejoin: round; stroke-width: 8px;"/>
        <line x1="161.75" y1="108" x2="161.75" y2="132" style="fill: none; stroke: #183b63; stroke-linecap: round; stroke-linejoin: round; stroke-width: 8px;"/>
      </g>
    </g>
  </g>
  <g id="car_body" data-name="car body">
    <path d="m312.627,131H58.976c-15.028,0-27.609,11.392-29.095,26.346l-12.85,139.258c-.82,8.245,5.656,15.396,13.941,15.396h319.062c7.108,0,13.089-5.323,13.915-12.382l6.855-58.612c.925-7.912-4.924-15.002-12.867-15.598l-5.436-.408-26.679-84.702c-1.991-5.576-7.273-9.298-13.194-9.298Z" style="fill: #fffce8; stroke: #183b63; stroke-linecap: round; stroke-linejoin: round; stroke-width: 8px;"/>
  </g>
  <g id="door">
    <g>
      <path d="m116.5,225l13.548,68.548h36.133c1.634-23.225,13.589-42.781,30.158-51.57v-9.882" style="fill: none; stroke: #183b63; stroke-linecap: round; stroke-linejoin: round; stroke-width: 8px;"/>
      <line x1="135.42" y1="251.742" x2="137.754" y2="262.387" style="fill: none; stroke: #183b63; stroke-linecap: round; stroke-linejoin: round; stroke-width: 8px;"/>
    </g>
  </g>
  <g id="oilhole">
    <ellipse cx="42" cy="251.382" rx="12.618" ry="6.5" transform="translate(-212.304 268.308) rotate(-84.323)" style="fill: none; stroke: #183b63; stroke-linecap: round; stroke-linejoin: round; stroke-width: 6.118px;"/>
  </g>
  <g id="window1">
    <g style="clip-path: url(#clippath);">
      <line x1="219.5" y1="167" x2="318.5" y2="167" style="fill: none; stroke: #183b63; stroke-linecap: round; stroke-linejoin: round; stroke-width: 8px;"/>
      <g id="cute1">
        <g>
          <circle cx="246.006" cy="191.072" r="34.506" style="fill: #fffce8; stroke: #183b63; stroke-linecap: round; stroke-linejoin: round; stroke-width: 8px;"/>
          <ellipse cx="247.978" cy="189.332" rx="4.929" ry="8.873" style="fill: #183b63; stroke-width: 0px;"/>
          <path d="m268.682,189.332c0,4.9-2.207,8.873-4.929,8.873s-4.929-3.973-4.929-8.873c0-4.9,2.207-8.873,4.929-8.873s4.929,3.973,4.929,8.873Z" style="fill: #183b63; stroke-width: 0px;"/>
        </g>
      </g>
      <g id="handle">
        <path d="m284,188.5c-14.359,0-26,11.641-26,26s11.641,26,26,26,26-11.641,26-26-11.641-26-26-26Zm0,36.5c-5.799,0-10.5-4.701-10.5-10.5s4.701-10.5,10.5-10.5,10.5,4.701,10.5,10.5-4.701,10.5-10.5,10.5Z" style="fill: #fffce8; stroke: #183b63; stroke-linecap: round; stroke-linejoin: round; stroke-width: 8px;"/>
        <circle cx="264.5" cy="207" r="11" style="fill: #fffce8; stroke: #183b63; stroke-linecap: round; stroke-linejoin: round; stroke-width: 8px;"/>
        <circle cx="305.5" cy="207" r="11" style="fill: #fffce8; stroke: #183b63; stroke-linecap: round; stroke-linejoin: round; stroke-width: 8px;"/>
      </g>
      <polygon points="341.5 213.784 222.5 213.784 229.242 233 341.5 233 341.5 213.784" style="fill: #fffce8; stroke: #183b63; stroke-linecap: round; stroke-linejoin: round; stroke-width: 8px;"/>
    </g>
  </g>
  <g id="window1_grass">
    <path d="m308.475,146h-94.093c-1.888,0-3.203,1.875-2.56,3.65l23.027,73.555c.39,1.078,1.414,1.795,2.56,1.795h91.907c3.98,0,6.752-3.952,5.396-7.695l-20.841-67.521c-.823-2.271-2.98-3.784-5.396-3.784Z" style="fill: #fffce8; opacity: .5; stroke-width: 0px;"/>
  </g>
  <g id="window1_frame">
    <path d="m308.475,146h-94.093c-1.888,0-3.203,1.875-2.56,3.65l23.027,73.555c.39,1.078,1.414,1.795,2.56,1.795h91.907c3.98,0,6.752-3.952,5.396-7.695l-20.841-67.521c-.823-2.271-2.98-3.784-5.396-3.784Z" style="fill: none; stroke: #183b63; stroke-linecap: round; stroke-linejoin: round; stroke-width: 8px;"/>
  </g>
  <g id="window2">
    <g style="clip-path: url(#clippath-1);">
      <line x1="108.5" y1="166.784" x2="184.5" y2="166.784" style="fill: none; stroke: #183b63; stroke-linecap: round; stroke-linejoin: round; stroke-width: 8px;"/>
      <g id="cute3">
        <g>
          <circle cx="172.006" cy="194.072" r="30.506" style="fill: #fffce8; stroke: #183b63; stroke-linecap: round; stroke-linejoin: round; stroke-width: 8px;"/>
          <ellipse cx="173.75" cy="192.534" rx="4.358" ry="7.844" style="fill: #183b63; stroke-width: 0px;"/>
          <path d="m192.053,192.534c0,4.332-1.951,7.844-4.358,7.844s-4.358-3.512-4.358-7.844c0-4.332,1.951-7.844,4.358-7.844s4.358,3.512,4.358,7.844Z" style="fill: #183b63; stroke-width: 0px;"/>
        </g>
      </g>
      <g id="cute2">
        <g>
          <circle cx="131.006" cy="194.072" r="30.506" style="fill: #fffce8; stroke: #183b63; stroke-linecap: round; stroke-linejoin: round; stroke-width: 8px;"/>
          <ellipse cx="132.75" cy="192.534" rx="4.358" ry="7.844" style="fill: #183b63; stroke-width: 0px;"/>
          <path d="m151.053,192.534c0,4.332-1.951,7.844-4.358,7.844s-4.358-3.512-4.358-7.844c0-4.332,1.951-7.844,4.358-7.844s4.358,3.512,4.358,7.844Z" style="fill: #183b63; stroke-width: 0px;"/>
        </g>
      </g>
      <polygon points="109.5 213.784 194.5 213.784 196.339 232.097 109.5 233 109.5 213.784" style="fill: #fffce8; stroke: #183b63; stroke-linecap: round; stroke-linejoin: round; stroke-width: 8px;"/>
    </g>
  </g>
  <g id="window2_grass">
    <g style="clip-path: url(#clippath-2);">
      <g style="opacity: .5;">
        <path d="m197.871,178.784c-.823-2.271-2.98-3.784-5.396-3.784h-91.975l11,79h107l-20.629-75.216Z" style="fill: #fffce8;"/>
      </g>
      <path d="m197.871,178.784c-.823-2.271-2.98-3.784-5.396-3.784h-91.975l11,79h107l-20.629-75.216Z" style="fill: none; stroke: #183b63; stroke-linecap: round; stroke-linejoin: round; stroke-width: 8px;"/>
    </g>
  </g>
  <g id="window2_frame">
    <path d="m180.871,149.784c-.823-2.271-2.98-3.784-5.396-3.784h-69.975l11,79h52.796l23.212-33.098-11.637-42.118Z" style="fill: none; stroke: #183b63; stroke-linecap: round; stroke-linejoin: round; stroke-width: 8px;"/>
  </g>
  <g id="window3">
    <g style="clip-path: url(#clippath-5);">
      <line x1="43.5" y1="166.784" x2="93.5" y2="166.784" style="fill: none; stroke: #183b63; stroke-linecap: round; stroke-linejoin: round; stroke-width: 8px;"/>
      <g id="cute4">
        <g>
          <circle cx="81.994" cy="194.072" r="30.506" style="fill: #fffce8; stroke: #183b63; stroke-linecap: round; stroke-linejoin: round; stroke-width: 8px;"/>
          <ellipse cx="80.25" cy="196.534" rx="4.358" ry="7.844" style="fill: #183b63; stroke-width: 0px;"/>
          <ellipse cx="66.305" cy="196.534" rx="4.358" ry="7.844" style="fill: #183b63; stroke-width: 0px;"/>
        </g>
      </g>
      <polygon points="108.5 213.784 33.5 213.784 31.565 240.144 112.855 240.144 108.5 213.784" style="fill: #fffce8; stroke: #183b63; stroke-linecap: round; stroke-linejoin: round; stroke-width: 8px;"/>
    </g>
  </g>
  <g id="window3_grass">
    <g style="clip-path: url(#clippath-6);">
      <path d="m60.578,146c-8.531,0-15.646,6.523-16.385,15.022l-4.151,57.742c-.292,3.353,2.352,6.237,5.718,6.237h56.611l-11-79h-30.792Z" style="fill: #fffce8; opacity: .5; stroke-width: 0px;"/>
    </g>
  </g>
  <g id="window3_frame">
    <path d="m60.578,146c-8.531,0-15.646,6.523-16.385,15.022l-4.151,57.742c-.292,3.353,2.352,6.237,5.718,6.237h56.611l-11-79h-30.792Z" style="fill: none; stroke: #183b63; stroke-linecap: round; stroke-linejoin: round; stroke-width: 8px;"/>
  </g>
  <g id="ear_L">
    <path d="m204.78,196.803s-26.773-16.782-37.586,2.371c-10.814,19.152,1.966,45.966,40.306,36.389" style="fill: #fffce8; stroke: #183b63; stroke-linecap: round; stroke-linejoin: round; stroke-width: 8px;"/>
  </g>
  <g id="wheel1_L">
    <g>
      <ellipse cx="216" cy="299" rx="35.5" ry="44" style="fill: #fffce8; stroke: #183b63; stroke-linecap: round; stroke-linejoin: round; stroke-width: 8px;"/>
      <path d="m214,265c15.188,0,27.5,15.222,27.5,34s-12.312,34-27.5,34" style="fill: none; stroke: #183b63; stroke-linecap: round; stroke-linejoin: round; stroke-width: 8px;"/>
      <ellipse cx="204" cy="299" rx="6.5" ry="13" style="fill: none; stroke: #183b63; stroke-linecap: round; stroke-linejoin: round; stroke-width: 8px;"/>
    </g>
  </g>
  <g id="wheel2_L">
    <g>
      <ellipse cx="84" cy="299" rx="35.5" ry="44" style="fill: #fffce8; stroke: #183b63; stroke-linecap: round; stroke-linejoin: round; stroke-width: 8px;"/>
      <path d="m82,265c15.188,0,27.5,15.222,27.5,34s-12.312,34-27.5,34" style="fill: none; stroke: #183b63; stroke-linecap: round; stroke-linejoin: round; stroke-width: 8px;"/>
      <ellipse cx="71" cy="299" rx="6.5" ry="13" style="fill: none; stroke: #183b63; stroke-linecap: round; stroke-linejoin: round; stroke-width: 8px;"/>
    </g>
  </g>
  <g id="eye_L">
    <path d="m290.5,276s-1.166-21,11-21c11,0,6.71,21,6.71,21" style="fill: none; stroke: #183b63; stroke-linecap: round; stroke-linejoin: round; stroke-width: 8px;"/>
  </g>
  <g id="eye_R">
    <path d="m328.5,276s-1.166-21,11-21c11,0,6.71,21,6.71,21" style="fill: none; stroke: #183b63; stroke-linecap: round; stroke-linejoin: round; stroke-width: 8px;"/>
  </g>
</svg>